PathFileType	4	(X/Y/Z)	C:/Users/opensim2020/Desktop/walking_exp_matlab/subject06_walking19_straight_01.trc																																																																																																																																																	
DataRate	CameraRate	NumFrames	NumMarkers	Units	OrigDataRate	OrigDataStartFrame	OrigNumFrames																																																																																																																																													
100	100	4	49	mm	100	861	472																																																																																																																																													
Frame#	Time	LFHD			RFHD			LBHD			RBHD			C7			T10			CLAV			STRN			RBAK			LSHO			LUPA			LELB			LFRM			LWRA			LWRB			LFIN			RSHO			RUPA			RELB			RFRM			RWRA			RWRB			RFIN			LASI			RASI			LPSI			RPSI			LTHI			LKNE			LTIB			LANK			LHEE			LTOE			RTHI			RKNE			RTIB			RANK			RHEE			RTOE			*39			*40			*41			*42			*43			*44			*45			*46			*47			*48		
		X1	Y1	Z1	X2	Y2	Z2	X3	Y3	Z3	X4	Y4	Z4	X5	Y5	Z5	X6	Y6	Z6	X7	Y7	Z7	X8	Y8	Z8	X9	Y9	Z9	X10	Y10	Z10	X11	Y11	Z11	X12	Y12	Z12	X13	Y13	Z13	X14	Y14	Z14	X15	Y15	Z15	X16	Y16	Z16	X17	Y17	Z17	X18	Y18	Z18	X19	Y19	Z19	X20	Y20	Z20	X21	Y21	Z21	X22	Y22	Z22	X23	Y23	Z23	X24	Y24	Z24	X25	Y25	Z25	X26	Y26	Z26	X27	Y27	Z27	X28	Y28	Z28	X29	Y29	Z29	X30	Y30	Z30	X31	Y31	Z31	X32	Y32	Z32	X33	Y33	Z33	X34	Y34	Z34	X35	Y35	Z35	X36	Y36	Z36	X37	Y37	Z37	X38	Y38	Z38	X39	Y39	Z39	X40	Y40	Z40	X41	Y41	Z41	X42	Y42	Z42	X43	Y43	Z43	X44	Y44	Z44	X45	Y45	Z45	X46	Y46	Z46	X47	Y47	Z47	X48	Y48	Z48	X49	Y49	Z49
																																																																																																																																																				
1	0	-1242.50952	1662.16357	1307.69104	-1240.83618	1661.8446	1439.44312	-1374.80042	1604.61084	1311.91052	-1371.48828	1608.90417	1441.09424	-1371.37854	1456.44849	1372.78894	-1421.6062	1129.89624	1387.03748	-1262.81702	1375.67651	1383.67139	-1233.73352	1197.60596	1384.22815	-1455.46167	1291.71399	1451.33191	-1301.97461	1406.17249	1218.90454	-1270.77014	1204.97144	1149.79846	-1249.83533	1093.67651	1138.26563	-1168.97571	965.01294	1136.61011	-1081.26746	885.47388	1202.75598	-1123.02771	856.38092	1153.63635	-1053.83521	800.42896	1169.45703	-1318.61316	1413.47656	1539.70691	-1374.77234	1221.42468	1630.63403	-1372.62695	1099.20398	1645.02881	-1351.19019	980.93188	1661.27344	-1281.40247	847.52466	1627.32776	-1334.94824	845.07935	1669.11584	-1291.64087	772.27966	1670.0426	-1243.26294	963.55316	1295.23938	-1260.58301	974.45343	1514.26123	-1403.078	994.08679	1313.81055	-1409.70508	995.05902	1481.93286	-1330.21875	653.25977	1244.60303	-1353.92334	490.31726	1268.53271	-1406.203	237.65408	1286.96558	-1412.61792	68.26705	1342.06018	-1450.58826	55.3643	1389.45129	-1267.39185	39.34946	1338.2229	-1241.42188	650.23279	1577.60828	-1193.6698	532.38971	1558.71851	-1237.19189	272.72357	1560.08362	-1251.43787	86.33646	1521.56238	-1285.87695	59.8778	1472.96826	-1105.1355	48.65834	1541.43274	-1343.09045	1702.49756	1363.48779	NaN	NaN	NaN	NaN	NaN	NaN	NaN	NaN	NaN	NaN	NaN	NaN	NaN	NaN	NaN	NaN	NaN	NaN	NaN	NaN	NaN	NaN	NaN	NaN	NaN	NaN	NaN
2	0.01	-1238.12512	1662.09131	1308.28271	-1236.89612	1661.5249	1440.01331	-1370.54565	1604.27734	1312.07764	-1367.50342	1608.3053	1441.25793	-1367.00623	1456.13733	1372.65979	-1417.1731	1129.58813	1386.87561	-1258.52063	1375.37781	1383.6709	-1229.28894	1197.34473	1384.14392	-1451.13013	1291.3158	1450.88599	-1297.31592	1406.17761	1218.99634	-1266.05066	1205.04028	1149.94409	-1245.00134	1093.84668	1138.70227	-1163.3186	965.58057	1138.09631	-1075.75232	886.94861	1205.4071	-1116.72485	857.33752	1156.05505	-1047.29028	801.94031	1172.73596	-1314.6012	1413.05042	1539.63745	-1371.13672	1220.9906	1630.23279	-1369.17847	1098.83154	1644.57373	-1347.88367	980.591	1660.95227	-1277.92029	847.12732	1627.54443	-1331.64771	844.70782	1669.00305	-1288.38037	771.84637	1670.25989	-1239.17603	963.09894	1294.71301	-1256.22778	974.46692	1513.94934	-1398.84045	993.82568	1313.61035	-1405.13184	994.82715	1481.75806	-1326.84802	652.9281	1244.55981	-1351.19202	490.11172	1268.54163	-1404.64587	237.56696	1287.04565	-1412.35583	68.30564	1342.20117	-1450.49756	55.50083	1389.56311	-1267.41003	39.23958	1338.16858	-1237.28235	650.53259	1576.4906	-1189.90027	532.16486	1558.1825	-1225.27832	270.90601	1560.13293	-1233.71179	84.24893	1522.01978	-1268.17981	57.38198	1473.93933	-1085.90698	48.22719	1538.24707	-1339.09241	1702.08167	1363.8811	NaN	NaN	NaN	NaN	NaN	NaN	NaN	NaN	NaN	NaN	NaN	NaN	NaN	NaN	NaN	NaN	NaN	NaN	NaN	NaN	NaN	NaN	NaN	NaN	NaN	NaN	NaN
3	0.02	-1233.6051	1661.96826	1308.94678	-1232.81299	1661.13928	1440.54871	-1364.60315	1603.61707	1312.29724	-1363.3761	1607.67212	1441.45215	-1362.60669	1455.82471	1372.6333	-1412.6698	1129.28992	1386.7782	-1254.06384	1375.07495	1383.68982	-1224.66711	1197.04541	1383.93225	-1446.74231	1290.90698	1450.49072	-1292.97327	1406.26099	1219.10791	-1261.1925	1205.05847	1150.21729	-1239.19165	1093.74731	1139.2605	-1157.72864	966.0094	1139.62878	-1070.31348	888.19104	1208.22375	-1110.55884	858.14844	1158.52356	-1040.93481	803.36206	1176.18469	-1310.46887	1412.66101	1539.61584	-1367.39075	1220.47778	1629.84692	-1365.42273	1098.37158	1644.30273	-1344.2887	980.1499	1660.85828	-1274.28577	846.56647	1627.75732	-1328.25586	844.22125	1668.88586	-1285.12292	771.38	1670.42126	-1235.03992	962.57324	1294.18909	-1250.93457	973.64484	1513.44189	-1394.51807	993.43945	1313.4342	-1400.40088	994.52319	1481.62817	-1323.38965	652.63354	1244.55469	-1348.3407	489.83792	1268.55615	-1403.51636	237.60205	1286.66602	-1412.16064	68.3448	1342.43738	-1450.41064	55.63995	1389.71228	-1267.34155	39.15702	1338.21094	-1233.35864	650.19189	1575.84949	-1186.16162	531.90131	1557.66956	-1214.12378	269.57355	1560.25598	-1216.40894	82.62079	1522.48633	-1251.06299	55.82474	1474.9657	-1067.29663	47.92542	1535.21265	-1335.03894	1701.67529	1364.32898	NaN	NaN	NaN	NaN	NaN	NaN	NaN	NaN	NaN	NaN	NaN	NaN	NaN	NaN	NaN	NaN	NaN	NaN	NaN	NaN	NaN	NaN	NaN	NaN	NaN	NaN	NaN
4	0.03	-1229.35132	1661.87695	1309.54053	-1228.77087	1660.76855	1441.15991	-1360.23938	1603.27576	1312.57153	-1359.18469	1607.04126	1441.74976	-1358.07263	1455.4823	1372.71692	-1408.12402	1128.92786	1386.72253	-1249.51501	1374.71643	1383.83411	-1220.32642	1196.64221	1383.93164	-1442.26624	1290.42493	1450.2406	-1287.89014	1405.97644	1219.39856	-1256.19446	1205.08997	1150.5448	-1234.5094	1093.91614	1139.49304	-1151.82727	966.44452	1141.23547	-1064.95752	889.27698	1211.18811	-1104.60291	858.85107	1161.04822	-1034.82349	804.40747	1179.76123	-1306.20874	1412.16431	1539.73218	-1363.52832	1219.99548	1629.5957	-1361.67334	1097.89941	1644.07275	-1340.69153	979.60767	1660.73462	-1270.66968	845.97046	1628.00098	-1324.82092	843.6792	1668.89612	-1281.71448	770.87457	1670.75806	-1230.76563	962.12366	1293.68054	-1246.27527	973.50171	1512.98755	-1390.15442	993.05804	1313.32495	-1395.56152	994.17352	1481.50085	-1319.88733	652.21826	1244.45044	-1345.34424	489.57285	1268.58276	-1401.75891	237.56398	1287.18579	-1411.89661	68.42721	1342.48328	-1450.28259	55.72984	1389.81299	-1267.29773	39.07803	1338.19263	-1229.23425	649.79187	1575.29895	-1182.3385	531.56201	1556.98218	-1203.41589	268.54388	1560.07947	-1199.67078	81.40853	1522.80457	-1234.37842	54.71814	1475.80261	-1049.30383	47.65656	1532.37085	-1330.95483	1701.30286	1364.86926	NaN	NaN	NaN	NaN	NaN	NaN	NaN	NaN	NaN	NaN	NaN	NaN	NaN	NaN	NaN	NaN	NaN	NaN	NaN	NaN	NaN	NaN	NaN	NaN	NaN	NaN	NaN
